<svg width="36" height="22" viewBox="0 0 36 22" fill="none" xmlns="http://www.w3.org/2000/svg">
<path d="M11.78 7.828C12.34 7.92133 12.872 7.86533 13.376 7.66C13.8987 7.45467 14.356 7.17467 14.748 6.82C15.1587 6.44667 15.5133 6.036 15.812 5.588C16.1107 5.12133 16.3253 4.68267 16.456 4.272C16.6053 3.86133 16.6613 3.516 16.624 3.236C16.6053 2.956 16.484 2.79733 16.26 2.76C15.924 2.704 15.56 2.75067 15.168 2.9C14.7947 3.03067 14.412 3.22667 14.02 3.488C13.6467 3.74933 13.264 4.06667 12.872 4.44C12.4987 4.79467 12.144 5.168 11.808 5.56L8.98 13.988C8.66267 14.9027 8.532 15.6773 8.588 16.312C8.644 16.9467 8.91467 17.3387 9.4 17.488C8.98933 17.7493 8.56 17.936 8.112 18.048C7.68267 18.1413 7.26267 18.132 6.852 18.02C6.38533 17.8893 6.04 17.6747 5.816 17.376C5.61067 17.0773 5.47067 16.732 5.396 16.34C5.34 15.948 5.34 15.5373 5.396 15.108C5.452 14.6787 5.52667 14.2773 5.62 13.904L9.204 3.124C9.27867 2.9 9.29733 2.704 9.26 2.536C9.24133 2.368 9.176 2.24667 9.064 2.172C8.952 2.09733 8.812 2.09733 8.644 2.172C8.476 2.228 8.28 2.37733 8.056 2.62C7.73867 2.99333 7.44 3.46933 7.16 4.048C6.89867 4.608 6.69333 5.21467 6.544 5.868C6.39467 6.484 6.32 7.09067 6.32 7.688C6.33867 8.28533 6.46 8.79867 6.684 9.228C5.732 9.37733 4.95733 9.32133 4.36 9.06C3.78133 8.79867 3.352 8.40667 3.072 7.884C2.81067 7.36133 2.68933 6.764 2.708 6.092C2.74533 5.42 2.904 4.748 3.184 4.076C3.38933 3.53467 3.66 3.03067 3.996 2.564C4.35067 2.09733 4.752 1.696 5.2 1.36C5.48 1.15467 5.85333 0.986666 6.32 0.856C6.80533 0.725333 7.31867 0.650666 7.86 0.631999C8.40133 0.594666 8.94267 0.622665 9.484 0.715998C10.044 0.790665 10.548 0.930666 10.996 1.136C11.444 1.32267 11.808 1.57467 12.088 1.892C12.368 2.20933 12.508 2.592 12.508 3.04C13.2547 2.38667 14.0293 1.864 14.832 1.472C15.6347 1.06133 16.4093 0.902667 17.156 0.996C17.5107 1.052 17.828 1.18267 18.108 1.388C18.4067 1.57467 18.6587 1.81733 18.864 2.116C19.088 2.396 19.2467 2.71333 19.34 3.068C19.452 3.404 19.4987 3.74 19.48 4.076C19.3867 5.028 19.0507 5.952 18.472 6.848C17.8933 7.744 17.1933 8.46267 16.372 9.004C17.1187 9.62 17.604 10.3853 17.828 11.3C18.052 12.196 18.052 13.1293 17.828 14.1C17.604 15.052 17.1653 15.9853 16.512 16.9C15.8587 17.8147 15.028 18.5987 14.02 19.252C13.012 19.924 11.836 20.4093 10.492 20.708C9.148 21.0067 7.68267 21.0253 6.096 20.764C4.584 20.5027 3.38 20.036 2.484 19.364C1.60667 18.7107 0.981333 17.9733 0.608 17.152C0.216 16.312 0.0573333 15.4627 0.132 14.604C0.188 13.7453 0.412 13.008 0.804 12.392C1.196 11.7573 1.70933 11.3 2.344 11.02C2.99733 10.74 3.72533 10.7587 4.528 11.076C3.93067 12.1213 3.53867 13.1107 3.352 14.044C3.16533 14.9587 3.16533 15.7707 3.352 16.48C3.55733 17.1893 3.94 17.768 4.5 18.216C5.07867 18.664 5.82533 18.944 6.74 19.056C7.59867 19.1493 8.476 19.0653 9.372 18.804C10.268 18.524 11.0893 18.132 11.836 17.628C12.6013 17.1053 13.2547 16.4987 13.796 15.808C14.3373 15.1173 14.692 14.408 14.86 13.68C15.0467 12.952 15.0093 12.2427 14.748 11.552C14.4867 10.8427 13.9267 10.2173 13.068 9.676C12.9187 9.62 12.76 9.55467 12.592 9.48C12.424 9.38667 12.2653 9.284 12.116 9.172C11.8733 8.98533 11.7147 8.78 11.64 8.556C11.5653 8.332 11.612 8.08933 11.78 7.828ZM35.4875 4.972C35.5621 6.12933 35.4688 7.20267 35.2075 8.192C34.9648 9.16267 34.5728 10.068 34.0315 10.908C33.5275 11.692 32.8928 12.3827 32.1275 12.98C31.3621 13.5587 30.5221 14.0347 29.6075 14.408C28.6928 14.7813 27.7315 15.052 26.7235 15.22C25.7155 15.388 24.7261 15.444 23.7555 15.388L23.3075 16.732C22.9901 17.628 22.8595 18.3933 22.9155 19.028C22.9715 19.6627 23.2421 20.0547 23.7275 20.204C23.2981 20.4653 22.8688 20.652 22.4395 20.764C22.0101 20.876 21.5901 20.876 21.1795 20.764C20.7128 20.6333 20.3675 20.4093 20.1435 20.092C19.9381 19.7933 19.7981 19.448 19.7235 19.056C19.6675 18.664 19.6675 18.2533 19.7235 17.824C19.7795 17.3947 19.8541 16.9933 19.9475 16.62L20.6195 14.688C19.6115 14.2587 18.7621 13.6707 18.0715 12.924C17.3621 12.1587 16.8955 11.188 16.6715 10.012C16.5035 9.13467 16.4941 8.29467 16.6435 7.492C16.7928 6.68933 17.0728 6.036 17.4835 5.532C17.8941 5.00933 18.4261 4.68267 19.0795 4.552C19.7328 4.40267 20.4795 4.552 21.3195 5C20.8901 5.48533 20.5635 6.12 20.3395 6.904C20.1341 7.66933 20.0688 8.46267 20.1435 9.284C20.1995 10.068 20.3301 10.7213 20.5355 11.244C20.7595 11.748 21.0395 12.1587 21.3755 12.476L25.0995 1.64C25.1368 1.304 25.0901 1.08933 24.9595 0.996C24.9968 0.809332 25.1928 0.687999 25.5475 0.631999C25.9021 0.557333 26.2755 0.585332 26.6675 0.715998C27.0781 0.827999 27.4328 1.052 27.7315 1.388C28.0301 1.724 28.1421 2.18133 28.0675 2.76C28.0488 3.02133 27.9741 3.31067 27.8435 3.628C28.1981 3.236 28.5715 2.872 28.9635 2.536C29.3555 2.2 29.7381 1.91067 30.1115 1.668C30.5035 1.42533 30.8768 1.248 31.2315 1.136C31.6048 1.00533 31.9595 0.958666 32.2955 0.996C32.6501 1.03333 33.0048 1.192 33.3595 1.472C33.7141 1.73333 34.0315 2.06 34.3115 2.452C34.6101 2.82533 34.8621 3.236 35.0675 3.684C35.2915 4.132 35.4315 4.56133 35.4875 4.972ZM30.6155 8.948C31.0635 8.276 31.4275 7.59467 31.7075 6.904C32.0061 6.21333 32.1928 5.588 32.2675 5.028C32.3608 4.468 32.3328 4.00133 32.1835 3.628C32.0341 3.25467 31.7541 3.04 31.3435 2.984C30.8395 2.90933 30.3355 3.04933 29.8315 3.404C29.3275 3.74 28.8515 4.17867 28.4035 4.72C27.9555 5.26133 27.5448 5.85867 27.1715 6.512C26.7981 7.16533 26.4808 7.76267 26.2195 8.304L24.5115 13.232C25.0715 13.12 25.6408 12.9333 26.2195 12.672C26.7981 12.4107 27.3488 12.0933 27.8715 11.72C28.4128 11.328 28.9168 10.8987 29.3835 10.432C29.8688 9.96533 30.2795 9.47067 30.6155 8.948Z" fill="url(#paint0_linear_336_121)"/>
<defs>
<linearGradient id="paint0_linear_336_121" x1="1" y1="12" x2="34" y2="12" gradientUnits="userSpaceOnUse">
<stop stop-color="#1B37A0"/>
<stop offset="1" stop-color="#6B6BDF"/>
</linearGradient>
</defs>
</svg>
