<?xml version="1.0" encoding="UTF-8"?>
<svg width="821px" height="600px" viewBox="0 0 821 600" version="1.1" xmlns="http://www.w3.org/2000/svg" xmlns:xlink="http://www.w3.org/1999/xlink">
    <!-- Generator: Sketch 59.1 (86144) - https://sketch.com -->
    <title>work from caffee shop</title>
    <desc>Created with Sketch.</desc>
    <defs>
        <polygon id="path-1" points="0 0.235932262 791.87833 0.235932262 791.87833 512.762514 0 512.762514"></polygon>
        <polygon id="path-3" points="0 521 792 521 792 0 0 0"></polygon>
    </defs>
    <g id="work-from-caffee-shop" stroke="none" stroke-width="1" fill="none" fill-rule="evenodd">
        <g id="Group-97" transform="translate(13.000000, 40.000000)">
            <g id="Group-3" transform="translate(0.000000, 8.000000)">
                <mask id="mask-2" fill="white">
                    <use xlink:href="#path-1"></use>
                </mask>
                <g id="Clip-2"></g>
                <path d="M0.416770588,302.896872 C4.03577059,248.382373 19.8285353,160.576569 120.769712,120.46812 C221.710888,80.359671 260.534418,174.808599 286.416771,150.226001 C312.299124,125.643404 274.769712,-14.0892571 374.416771,1.43659407 C474.063829,16.9624453 522.241888,187.571496 568.534418,179.983883 C647.475594,167.045674 707.005006,107.529911 762.652065,200.685018 C818.299124,293.840125 791.122653,419.340755 709.593241,469.799772 C645.801653,509.280718 -18.9949941,595.300402 0.416770588,302.896872" id="Fill-1" fill="#D9F7FF" mask="url(#mask-2)"></path>
            </g>
            <polygon id="Fill-4" fill="#302E4C" points="42.1342979 521 38 520.220358 55.8650524 426 60 426.77835"></polygon>
            <polygon id="Fill-6" fill="#302E4C" points="232.95429 521 238 521 219.196739 425 215 425.783008"></polygon>
            <polygon id="Fill-8" fill="#302E4C" points="87.9541455 521 93 521 74.1948815 425 70 425.783008"></polygon>
            <path d="M116.290603,217.551815 C94.2665579,219.911898 65.764471,222.40169 37.1515542,270.989291 C5.87936735,324.09341 22.340528,403.417855 47.0238434,425.461503 C71.7058625,447.504502 152.320699,474.722301 220.087042,433.97505 C220.087042,433.97505 261.005322,409.282714 240.005319,368.301337 C207.690294,305.236101 212.255709,292.084755 197.806338,267.369071 C183.358264,242.654036 163.040092,212.541099 116.290603,217.551815" id="Fill-10" fill="#6FA9BD"></path>
            <path d="M38.1130304,271.531449 C57.597349,238.466727 77.0305819,226.814893 94.3925835,222 C87.6764395,228.950103 80.8684708,237.889276 74.0540355,249.453814 C42.8523544,302.400824 63.2038354,371.236463 104.91105,405.183204 C127.613764,423.661633 220.632292,434.036997 239.733792,387.723883 C250.272952,418.60813 220.632292,434.036997 220.632292,434.036997 C153.019489,474.664192 72.5880719,447.526586 47.9622109,425.548533 C23.3350565,403.569834 6.91134926,324.479106 38.1130304,271.531449" id="Fill-12" fill="#225454"></path>
            <path d="M291.677664,315 C291.677664,315 270.336791,286.775755 291.036616,263.440826 C311.736441,240.105897 329.848788,227.142047 336.317484,203.807118 C342.786179,180.472189 346.385361,162 346.385361,162 L439.970564,162 C439.970564,162 425.58548,202.510733 465.691391,236.216742 C505.797302,269.922751 503.209824,289.368525 491.267965,315 L291.677664,315 Z" id="Fill-14" fill="#FFFFFF"></path>
            <path d="M206.017394,324 C206.017394,324 227.616906,347.667125 232.036369,347.279818 C236.553824,346.886243 239.310027,345.521266 243.240181,347.279818 C246.064325,348.545775 254.99275,355.434585 252.595853,354.978339 C250.198303,354.521467 245.861154,353.988136 244.715948,353.884102 C243.139575,353.739331 240.608101,353.706116 238.891272,353.419708 C237.804862,353.238589 233.880588,353.132048 232.572061,353.091938 C226.887842,352.912072 200,337.842799 200,337.842799 L206.017394,324 Z" id="Fill-16" fill="#FD6062"></path>
            <path d="M212.668663,330.642088 C208.777551,326.401653 205.850642,323 205.850642,323 L200,337.273503 C200,337.273503 218.96012,348.54148 228,352 C227.994919,351.996123 227.992378,351.992245 227.987296,351.989661 C222.905857,348.435501 207.97913,338.096129 207.97913,338.096129 L212.668663,330.642088 Z" id="Fill-18" fill="#AB2A41"></path>
            <path d="M243.721295,300.015462 C244.575737,299.854312 245.741404,300.469192 246.478582,301.52195 C246.562251,302.82634 246.860165,304.07129 247.338729,305.217832 C246.142636,304.913364 243.718125,304.131391 243.178711,302.677739 C242.494777,300.839705 242.957494,300.160101 243.721295,300.015462 M242.467521,304.900155 C244.063579,306.875563 249.14903,308.179293 249.14903,308.179293 L249.148396,308.177972 C251.126671,310.515307 254.017068,312 257.225663,312 C263.151612,312 268,306.947552 268,300.77366 L268,296.403458 C268,295.927933 267.967673,295.460995 267.911894,295 L246.539432,295 C246.483653,295.460995 246.452594,295.927933 246.452594,296.403458 L246.452594,298.553885 C245.027678,298.241492 243.06018,297.987879 242.049808,298.637762 C240.354235,299.728827 240.872098,302.925408 242.467521,304.900155" id="Fill-20" fill="#C45446"></path>
            <path d="M266.906941,295 L263.825864,295 C263.88588,295.460263 263.918249,295.92977 263.918249,296.40324 L263.918249,300.774083 C263.918249,306.435907 259.580869,311.152773 254,311.890382 C254.502386,311.963681 255.018933,312 255.540876,312 C261.842619,312 267,306.945696 267,300.774083 L267,296.40324 C267,295.92977 266.966957,295.460263 266.906941,295" id="Fill-22" fill="#E37970"></path>
            <mask id="mask-4" fill="white">
                <use xlink:href="#path-3"></use>
            </mask>
            <g id="Clip-25"></g>
            <polygon id="Fill-24" fill="#C45446" mask="url(#mask-4)" points="253 311 262 311 262 309 253 309"></polygon>
            <path d="M190.961991,200.165855 C190.961991,200.165855 190.006819,187.958379 172.576685,191.128191 C167.968858,191.96618 164.801137,183.688627 157.257514,186.638322 C141.014477,192.990174 140.059305,184.60385 135.364586,196.373022 C133.399934,201.299907 120.904111,207.034531 124.720327,215.547647 C128.536543,224.062051 122.151265,229.78702 126.63706,236.458749 C128.958224,239.911109 128.015191,246.081461 138.967405,246.301577 C144.422428,246.411636 152.918668,256.59365 159.039437,258.44276 C165.160844,260.291871 183.542955,257.62408 182.850376,249.163097 C182.309857,242.562809 189.951873,243.112457 194.646592,235.524218 C198.74904,228.891106 191.427757,227.220277 195.343005,216.497625 C198.212993,208.638423 190.737095,206.723664 190.961991,200.165855" id="Fill-26" fill="#343251" mask="url(#mask-4)"></path>
            <path d="M287.249176,501.547867 C286.873029,505.71763 292.542826,506.731807 299.109983,507.066361 C305.675856,507.401572 303.691138,508.777909 312.689766,510.446734 C321.688395,512.11556 325.294522,509.594247 325.946038,508.349365 C326.525663,507.24514 322.342479,505.51716 317.884566,503.564392 C317.322914,503.320542 316.761262,503.07012 316.19961,502.81904 C311.180688,500.559323 308.364725,495.9505 304.453059,491.678203 C300.747439,487.630694 297.228609,474.673801 297.228609,474.673801 L285,472 C285,472 288.434101,483.661401 289.625445,488.639613 C290.327029,491.569095 289.292947,494.842989 288.373764,497.334725 C287.878868,498.690029 287.379479,500.078197 287.249176,501.547867" id="Fill-27" fill="#FD6062" mask="url(#mask-4)"></path>
            <path d="M310,510 C309.982439,509.971033 309.968013,509.944641 309.951079,509.915674 C306.496524,504.236834 299.181623,502.813584 295.916479,497.22229 C294.049339,494.025609 293.279778,490.199377 293.585219,486.463909 C295.655569,486.732337 298.838551,486.251483 301.574348,486.203848 C299.480165,481.266567 297.948571,475.61927 297.948571,475.61927 L286,473 C286,473 289.355459,484.421406 290.519521,489.296891 C291.205038,492.165921 290.194638,495.371614 289.296503,497.811931 C288.813568,499.139912 288.324988,500.498791 288.197669,501.938778 C287.830136,506.021851 293.370094,507.015101 299.78686,507.343395 C305.322427,507.625985 304.643809,508.670088 310,510" id="Fill-28" fill="#AB2A41" mask="url(#mask-4)"></path>
            <path d="M299.9492,507.258051 C306.554176,507.576927 304.558284,508.886197 313.609859,510.473703 C322.662724,512.061208 326.290328,509.662756 326.945724,508.47791 C327.528801,507.427493 323.320058,505.784341 318.835596,503.926728 L318.765859,504.001133 C318.765859,504.001133 312.400442,506.094464 305.052899,504.159946 C299.065868,502.58432 293.275133,499.11982 289.149041,498 C288.651844,499.289887 288.149481,500.609786 288.017756,502.008467 C287.640015,505.974416 293.343579,506.939174 299.9492,507.258051" id="Fill-29" fill="#163560" mask="url(#mask-4)"></path>
            <path d="M179.352749,346 C179.352749,346 247.533843,349.080062 262.925574,358.845496 C278.316013,368.610929 303,482.359626 303,482.359626 C303,482.359626 301.475938,483.588665 298.074569,483.957441 C294.909557,484.302844 287.940204,482.432343 287.940204,482.432343 C287.940204,482.432343 252.466378,431.536652 249.967175,418.715179 C247.468618,405.893706 248.078243,394.451898 242.388843,394.146099 C236.698797,393.839651 165.770518,402.814942 155.042028,383.812568 C144.313538,364.810844 179.352749,346 179.352749,346" id="Fill-30" fill="#163560" mask="url(#mask-4)"></path>
            <path d="M260.249176,502.546998 C259.873671,506.716637 265.542826,507.730785 272.109341,508.065329 C278.675214,508.40053 276.691138,509.776827 285.690408,511.446918 C294.688395,513.115694 298.294522,510.59314 298.946038,509.34961 C299.525663,508.244103 295.342479,506.516174 290.883925,504.563463 C290.322914,504.320935 289.761262,504.069205 289.19961,503.818133 C284.180688,501.558483 281.364725,496.949795 277.453701,492.677624 C273.746798,488.630234 270.228609,475.673722 270.228609,475.673722 L258,473 C258,473 261.433459,484.661057 262.625445,489.640438 C263.326387,492.568519 262.292305,495.842317 261.373764,498.333979 C260.878868,499.689243 260.379479,501.077371 260.249176,502.546998" id="Fill-31" fill="#FD6062" mask="url(#mask-4)"></path>
            <path d="M259.256278,502.417511 C258.879588,506.568878 264.566645,507.578581 271.153896,507.911659 C271.629749,507.936525 272.056021,507.965972 272.449453,508 C272.478429,506.810343 272.129427,505.551322 271.316162,504.040366 C269.655505,500.958905 262.965229,496.208784 266.156471,492.241297 C268.253059,489.634259 272.094012,491.446229 275,490.477751 C271.892466,485.251898 269.267225,475.662005 269.267225,475.662005 L257,473 C257,473 260.444301,484.609954 261.640052,489.567513 C262.343207,492.482762 261.30586,495.742213 260.384417,498.222956 C259.887959,499.572281 259.386993,500.954324 259.256278,502.417511" id="Fill-32" fill="#AB2A41" mask="url(#mask-4)"></path>
            <path d="M271.948555,507.257273 C278.553531,507.576123 276.558284,508.885283 285.610504,510.473905 C294.662724,512.061277 298.290328,509.661776 298.945724,508.478281 C299.528801,507.426701 295.320058,505.783687 290.834951,503.92623 L290.765214,504.000629 C290.765214,504.000629 284.399797,506.093784 277.053545,504.159428 C271.065222,502.583935 265.275133,499.119726 261.149041,498 C260.651844,499.289779 260.149481,500.609567 260.017756,502.00813 C259.640015,505.973746 265.343579,506.938424 271.948555,507.257273" id="Fill-33" fill="#163560" mask="url(#mask-4)"></path>
            <path d="M152.116531,348 C152.116531,348 224.738736,351.451067 239.73859,361.794545 C254.739736,372.138022 275,486.582635 275,486.582635 C275,486.582635 273.430788,487.748764 270.015978,487.984064 C266.841392,488.204455 259.94913,486.066012 259.94913,486.066012 C259.94913,486.066012 226.47391,433.905249 224.473326,421.016253 C222.472743,408.126609 223.525342,396.737569 217.852287,396.209279 C212.178586,395.681636 140.958985,401.863609 130.974796,382.487982 C120.989961,363.111058 152.116531,348 152.116531,348" id="Fill-34" fill="#1C468A" mask="url(#mask-4)"></path>
            <path d="M130.533343,254.627926 C130.559432,254.588269 130.593349,254.555008 130.626613,254.515991 C131.208412,253.873163 131.904352,253.282784 132.672691,252.758288 L132.699433,252.738459 L132.705955,252.738459 C138.698738,248.633955 149.40461,247.755103 149.40461,247.755103 L149.40461,247.7615 L149.40461,247.762139 C149.405914,247.76022 149.405914,247.758302 149.406566,247.756383 C149.406566,247.756383 150.576033,247.647646 152.429048,247.565133 C153.833321,243.995999 155.431309,238.710738 155.927012,231 L156.988859,231.277599 L174.834804,235.971843 C174.834804,235.971843 174.044289,241.527028 173.674469,246.783506 C173.592939,247.935479 173.532933,249.071462 173.504886,250.133887 C174.022113,250.31874 185.126503,251.853851 187.540444,254.397659 C189.955037,256.949143 194.78292,273.894856 196,276.897918 L127.289752,278 C127.289752,278 125.564577,260.390991 130.533343,254.627926" id="Fill-35" fill="#FD6062" mask="url(#mask-4)"></path>
            <path d="M127.259733,376.974164 C135.376207,377.736282 162.732211,361.425278 171.847625,356.120009 C172.009669,356.029403 172.160648,355.938154 172.306422,355.853974 C176.102396,353.651156 181.443312,352.610794 186.519362,351.778633 C192.988072,350.734415 199.024667,350.03013 200.958772,347.748916 C203.258613,345.028809 196.493149,342.016963 191.054617,338.891378 C188.317455,337.313806 185.908934,335.703461 185.157939,334.098257 C184.580701,332.834914 184.623002,330.067255 185.012166,326.526553 L185.012166,326.521412 C185.077243,325.860182 185.163796,325.172604 185.260762,324.458038 C185.70394,325.36474 186.253846,326.302287 186.892256,327.240477 C188.489911,329.602658 190.595821,331.987331 192.702381,333.954316 C195.282707,336.369833 197.85327,338.165887 199.452226,338.55016 C200.526657,338.806555 201.606293,338.672895 202.675518,338.262919 C205.52136,337.164724 208.270236,334.071911 210.451636,331.091552 C210.964447,330.387268 211.450576,329.682983 211.893755,329.016611 C213.384031,326.787447 214.442843,324.937414 214.841768,324.501092 C216.056766,323.172847 209.955094,320.543988 207.449608,318.570577 C204.954534,316.592668 195.116108,278.271479 195.116108,278.271479 C193.900459,275.253207 189.084069,258.228279 186.675548,255.663037 C186.675548,255.663037 177.27965,266.993926 165.097781,266.343619 C153.001163,265.703594 132.282419,254.181212 131.963539,254 C130.904077,254.472308 129.792552,255.898227 129.792552,255.898227 C124.835594,261.688656 126.558197,279.374815 126.558197,279.374815 C126.558197,279.374815 136.039998,320.640377 136.039998,324.804397 C136.039998,332.440361 129.646778,349.99286 126.595291,362.635286 C124.657281,370.644597 124.057917,376.674072 127.259733,376.974164" id="Fill-36" fill="#FFFFFF" mask="url(#mask-4)"></path>
            <path d="M174,235.843825 C174,235.843825 173.202003,241.576025 172.829648,247 C162.641205,246.029123 157.867037,236.325633 156,231 L174,235.843825 Z" id="Fill-37" fill="#AB2A41" mask="url(#mask-4)"></path>
            <path d="M177.419138,242 C177.419138,242 154.075647,240.801468 155.02839,225.921323 C155.980499,211.041179 153.610072,200.864719 168.55354,201.001359 C183.497643,201.136699 186.027495,207.008984 186.888776,212.055572 C187.750056,217.101508 183.516063,241.929077 177.419138,242" id="Fill-38" fill="#FD6062" mask="url(#mask-4)"></path>
            <path d="M178,205.603128 C178,205.603128 172.419823,204.308378 170.59661,207.00651 C168.772761,209.704641 170.075056,211.215393 166.004271,212.348456 C161.934757,213.48152 160.549877,213.400677 160.957083,216.233336 C161.364288,219.065995 156.865334,221.170437 156.672849,223.437195 C156.479728,225.703954 154.606963,226.836386 152.815513,226.999335 C151.024698,227.161021 151.838474,197.77842 158.758427,196.484302 C165.67838,195.188921 172.355026,196.726199 174.389783,198.345583 C176.425175,199.964336 178,205.603128 178,205.603128" id="Fill-39" fill="#343251" mask="url(#mask-4)"></path>
            <path d="M177.357373,206.024281 C177.357373,206.024281 183.211215,205.634073 184.265085,208.811856 C185.318955,211.990291 183.913567,212.741997 185.406663,214.665632 C186.900444,216.588614 186.036381,220 186.036381,220 C186.036381,220 197.613188,199.696774 185.406663,198.359104 C173.200823,197.020781 173.522192,199.390089 177.357373,206.024281" id="Fill-40" fill="#343251" mask="url(#mask-4)"></path>
            <path d="M186.006774,318.74295 C187.558124,323.538086 190.334526,328.809075 193.242592,333.191761 C195.765206,335.649464 198.277006,337.4764 199.839806,337.86728 C200.889941,338.12743 201.9458,337.992126 202.990211,337.5751 C205.771701,336.458022 208.459054,333.312031 210.590491,330.279775 C211.091706,329.564034 211.567479,328.84764 212,328.16981 C204.574,322.047123 190.498629,308.036908 189.036327,288.862902 C187.035283,262.677905 185.901188,319.948271 186.006774,318.74295" id="Fill-41" fill="#9292A8" mask="url(#mask-4)"></path>
            <path d="M203,338.561375 C200.312332,334.372129 194.843978,330.243548 187,327 C190.613244,332.526569 196.792768,338.136047 199.732445,338.862678 C200.82163,339.131625 201.916093,338.992096 203,338.561375" id="Fill-42" fill="#599DAD" mask="url(#mask-4)"></path>
            <path d="M140,288 C140,288 145.975377,348.669975 172.414042,357 C172.576154,356.907239 172.72785,356.813821 172.873035,356.727639 C176.670635,354.472441 182.013838,353.40734 187.092061,352.55539 C193.563541,351.486342 199.603372,350.76531 201.538306,348.429193 C203.839132,345.645062 197.07012,342.561597 191.62991,339.361689 C188.891575,337.746603 186.482023,336.097966 185.730056,334.454592 C185.153222,333.16055 185.19554,330.327737 185.584871,326.70284 L185.584871,326.697577 C159.929424,317.112325 140,288 140,288" id="Fill-43" fill="#9292A8" mask="url(#mask-4)"></path>
            <path d="M133.121511,271.254161 C135.856821,258.959799 148.269585,266.014467 148.269585,266.014467 C152.571604,265.035151 184.156622,316.084652 186.684838,317.240976 C188.827165,318.220292 217.936705,309.790605 226.773564,307.193846 C229.054811,305.409015 237.072942,299.204756 238.476292,299.099577 C240.114391,298.977082 251.068494,301.782916 251,303.51644 C250.932147,305.249965 248.366628,307.794134 244.323154,308.438033 C241.259838,308.924805 236.06127,310.936668 232.748412,311.440115 C232.748412,311.440115 200.620577,333.262127 186.945313,335.923661 C174.634167,338.320965 130.385558,283.548524 133.121511,271.254161" id="Fill-44" fill="#FD6062" mask="url(#mask-4)"></path>
            <path d="M201,331 C215.840855,323.633062 233.703562,311.462276 233.703562,311.462276 C237.043095,310.95316 242.283522,308.918642 245.371504,308.42574 C249.039739,307.840744 251.493657,305.699863 252,304 C245.602957,306.942495 236.213236,309.403762 233.506471,310.142466 C229.940672,311.115299 211.46335,323.437847 211.46335,323.437847 C211.46335,323.437847 208.660633,314.718671 206.787616,313.10766 C206.73575,313.121928 206.683235,313.135548 206.631369,313.151113 L201,331 Z" id="Fill-45" fill="#AB2A41" mask="url(#mask-4)"></path>
            <path d="M206.106509,312.517575 C206.106509,312.517575 213.504681,331.410015 204.641524,338.590777 C195.777725,345.772816 176.542092,343.357306 155.472657,314.157287 C134.403223,284.959183 125.828565,269.060749 136.765189,264.419369 C147.702456,259.777989 156.741668,267.059636 162.351659,278.415661 C168.183969,290.221839 178.931687,306.567874 185.380189,307.188512 C191.829334,307.809789 206.106509,312.517575 206.106509,312.517575" id="Fill-46" fill="#FFFFFF" mask="url(#mask-4)"></path>
            <polygon id="Fill-47" fill="#302E4C" mask="url(#mask-4)" points="304 372 482 372 482 366 304 366"></polygon>
            <polygon id="Fill-48" fill="#302E4C" mask="url(#mask-4)" points="296 441 492 441 492 435 296 435"></polygon>
            <path d="M315,326.348804 L310.857822,357.104616 L310.857822,357.107215 L299.415696,442.062108 L289.186179,518.006556 C289.032765,519.157544 288.249714,520 287.334984,520 C286.52956,520 285.905677,519.096487 286.011788,518.078005 L294.832453,431.984465 L304.266774,339.893053 L305.690967,326 L315,326.348804 Z" id="Fill-49" fill="#302E4C" mask="url(#mask-4)"></path>
            <path d="M310.754869,357 C311.313025,343.827573 304,339.846326 304,339.846326 L305.460247,326 L315,326.347631 L310.754869,357 Z" id="Fill-50" fill="#000000" mask="url(#mask-4)"></path>
            <path d="M499.665463,520 C498.750078,520 497.968293,519.157544 497.81232,518.007205 L488.725591,450.530837 L475.654508,353.485369 L472,326.348804 L481.309183,326 L482.92517,341.752692 L494.265843,452.458028 L500.98868,518.078005 C501.092236,519.096487 500.472178,520 499.665463,520" id="Fill-51" fill="#302E4C" mask="url(#mask-4)"></path>
            <path d="M483,341.474878 C476.926862,344.900766 475.680183,353 475.680183,353 L472,326.342653 L481.373588,326 L483,341.474878 Z" id="Fill-52" fill="#000000" mask="url(#mask-4)"></path>
            <path d="M492.679797,337 L292.319553,337 C290.494189,337 289,332.323731 289,326.607865 L289,326.392775 C289,320.676269 290.494189,316 292.319553,316 L492.679797,316 C494.506461,316 496,320.676269 496,326.392775 L496,326.607865 C496,332.323731 494.506461,337 492.679797,337" id="Fill-53" fill="#E0B594" mask="url(#mask-4)"></path>
            <path d="M399,0.613593671 L399,109.15992 C399,110.329282 398.986876,111.475514 398.963544,112.590262 C398.750638,122.998867 397.589136,131 396.197229,131 L395.799125,131 C394.508567,131 393.416332,124.112331 393.096974,114.813335 C393.069996,114.046824 393.046664,113.264894 393.032811,112.464974 C393.032811,112.411003 393.029165,112.35639 393.029165,112.296637 C393.00875,111.274409 393,110.225839 393,109.15992 L393,0 C395.021874,0.150989019 397.020416,0.359161112 399,0.613593671" id="Fill-54" fill="#302E4C" mask="url(#mask-4)"></path>
            <path d="M395,113 C369.042371,113 348,135.386518 348,163 L442,163 C442,135.386518 420.956979,113 395,113" id="Fill-55" fill="#302E4C" mask="url(#mask-4)"></path>
            <path d="M397,113.453133 C395.640154,113.156072 394.252169,113 392.841934,113 C375.808522,113 362,135.385143 362,163 L370.315478,163 C370.315478,137.67179 381.93241,116.745721 397,113.453133" id="Fill-56" fill="#FFFFFF" mask="url(#mask-4)"></path>
            <path d="M485.660327,306.129075 C485.082115,307.668354 482.476966,308.49634 481.191624,308.818225 C481.706654,307.604108 482.025756,306.286411 482.115105,304.906436 C482.908392,303.789999 484.15991,303.138362 485.077647,303.309466 C485.897101,303.463525 486.393623,304.182686 485.660327,306.129075 M486.872276,301.850166 C485.786053,301.162472 483.675513,301.429945 482.143824,301.761664 L482.143824,299.483556 C482.143824,298.980734 482.109999,298.486433 482.050008,298 L459.095092,298 C459.033825,298.486433 459,298.980734 459,299.483556 L459,304.11254 C459,310.649889 464.207743,316 470.571912,316 C474.018851,316 477.124351,314.428597 479.248931,311.952508 L479.248293,311.95513 C479.248293,311.95513 484.709403,310.574498 486.424257,308.482573 C488.137196,306.389992 488.69371,303.007248 486.872276,301.850166" id="Fill-57" fill="#C45446" mask="url(#mask-4)"></path>
            <path d="M461,299.486509 L461,304.114481 C461,310.649092 466.157265,316 472.460659,316 C472.98157,316 473.498055,315.963296 474,315.8853 C468.418547,315.10272 464.08121,310.109019 464.08121,304.114481 L464.08121,299.486509 C464.08121,298.983141 464.114083,298.486982 464.174771,298 L461.092297,298 C461.032241,298.486982 461,298.983141 461,299.486509" id="Fill-58" fill="#E37970" mask="url(#mask-4)"></path>
            <polygon id="Fill-59" fill="#C45446" mask="url(#mask-4)" points="466 316 475 316 475 314 466 314"></polygon>
            <path d="M465.707957,243 C465.707957,243 459.881028,261.014861 469.752564,270.428901 C484.133162,284.14303 469.302938,294 469.302938,294 C469.302938,294 481.437432,288.857121 480.987807,273.857273 C480.538181,258.856781 463.910804,244.28572 465.707957,243" id="Fill-60" fill="#9292A8" mask="url(#mask-4)"></path>
            <path d="M453,231 C453,231 457.338577,237.817946 457.639481,247.864865 C457.820421,253.901189 455.664388,261.509838 459.296438,267.972973 C464.156626,276.622054 472,279 472,279 C472,279 464.045941,273.810811 461.836886,262.135135 C459.436948,249.449514 462.721038,238.783784 453,231" id="Fill-61" fill="#9292A8" mask="url(#mask-4)"></path>
            <path d="M339,307.953537 C339,309.63632 340.288044,311 341.874536,311 L405.122846,311 C406.711302,311 408,309.63632 408,307.953537 L408,265.047115 C408,263.364331 406.711302,262 405.122846,262 L341.874536,262 C340.288044,262 339,263.364331 339,265.047115 L339,307.953537 Z" id="Fill-62" fill="#9292A8" mask="url(#mask-4)"></path>
            <path d="M371,287 C371,284.790667 372.791333,283 375,283 C377.208667,283 379,284.790667 379,287 C379,289.208667 377.208667,291 375,291 C372.791333,291 371,289.208667 371,287" id="Fill-63" fill="#FFFFFF" mask="url(#mask-4)"></path>
            <path d="M307,313.5 C307,314.880677 308.093114,316 309.44271,316 L405.556644,316 C406.908824,316 408,314.880677 408,313.5 C408,312.117979 406.908824,311 405.556644,311 L309.44271,311 C308.093114,311 307,312.117979 307,313.5" id="Fill-64" fill="#7A7A8C" mask="url(#mask-4)"></path>
            <path d="M342.84859,262 C341.276417,262 340,263.359818 340,265.036234 L340,307.779667 C340,308.214342 340.089505,308.62631 340.243868,309 L405,262 L342.84859,262 Z" id="Fill-65" fill="#FFFFFF" mask="url(#mask-4)"></path>
            <polygon id="Fill-66" fill="#302E4C" mask="url(#mask-4)" points="715.865702 512 720 511.220358 702.134948 417 698 417.77835"></polygon>
            <polygon id="Fill-67" fill="#302E4C" mask="url(#mask-4)" points="526.04571 513 521 513 539.803261 417 544 417.783008"></polygon>
            <polygon id="Fill-68" fill="#302E4C" mask="url(#mask-4)" points="669.045854 513 664 513 682.805119 417 687 417.783008"></polygon>
            <polygon id="Fill-69" fill="#184655" mask="url(#mask-4)" points="570.944003 511.953516 575 512 557.151263 417 553 417.779249"></polygon>
            <path d="M641.709397,209.551815 C663.733442,211.911898 692.235529,214.40169 720.848446,262.989291 C752.120633,316.09341 735.659472,395.417855 710.976157,417.461503 C686.294138,439.504502 605.679301,466.722301 537.912958,425.97505 C537.912958,425.97505 496.994678,401.282714 517.994681,360.301337 C550.309706,297.236101 545.744291,284.084755 560.193662,259.369071 C574.641736,234.654036 594.959908,204.541099 641.709397,209.551815" id="Fill-70" fill="#6FA9BD" mask="url(#mask-4)"></path>
            <path d="M720.904818,263.531449 C701.440822,230.466727 682.027857,218.814893 664.683964,214 C671.393103,220.950103 678.193971,229.889276 685.001299,241.453814 C716.170437,294.400824 699.762568,373.493491 675.161745,395.470251 C653.345093,414.960674 587.688421,438.501013 526,415.248429 C532.342223,422.272896 538.575921,426.036997 538.575921,426.036997 C606.118206,466.664192 686.465734,439.526586 711.06591,417.548533 C735.667379,395.569834 752.073956,316.479106 720.904818,263.531449" id="Fill-71" fill="#225454" mask="url(#mask-4)"></path>
            <polygon id="Fill-72" fill="#F79C8D" mask="url(#mask-4)" points="571.577466 291 566 308 583 301.206099"></polygon>
            <path d="M589.121178,240 C587.984365,240.047444 584.870458,241.100051 580.31616,249.796887 C574.500801,260.902837 566,294.452507 566,294.452507 L591.373029,304 L594.63168,296.996687 L600,243.087732 C600,243.087732 589.436284,239.987054 589.121178,240" id="Fill-73" fill="#6394DB" mask="url(#mask-4)"></path>
            <path d="M582.484843,247 C581.974501,247.804063 581.444172,248.694413 580.891857,249.692142 C574.842373,260.623698 566,293.646544 566,293.646544 L588,294 C588,294 584.890645,255.057252 582.484843,247" id="Fill-74" fill="#86B1F2" mask="url(#mask-4)"></path>
            <path d="M623.521711,235 C616.19001,235.009763 598.047499,237.136285 589.626433,239.80734 C589.626433,239.80734 583.441059,292.624557 595.194952,332.756842 C597.827425,341.741653 593.019456,370 593.019456,370 L669,369.003193 C669,369.003193 659.998327,300.689338 663.390055,289.654137 C666.780489,278.619582 666.860751,240.16219 666.860751,240.16219 C666.860751,240.16219 666.340988,240.082188 649.790777,237.240159 C642.070711,235.914309 631.351814,234.989763 623.521711,235" id="Fill-75" fill="#86B1F2" mask="url(#mask-4)"></path>
            <path d="M631.945634,469 C631.945634,469 630.30742,488.023699 627.294141,493.29182 C624.280861,498.559304 627.452535,507.516766 627.610929,508.745272 C627.769955,509.973142 633.954907,511.730881 643.786716,510.676874 C653.619157,509.622231 653.460762,507.339718 652.666897,503.651652 C651.874925,499.964859 646.64097,495.223422 646.324812,491.711766 C646.006762,488.198836 649.336829,475.555219 649.336829,475.555219 L631.945634,469 Z" id="Fill-76" fill="#FD6062" mask="url(#mask-4)"></path>
            <path d="M601.083292,355.196736 C601.083292,355.196736 548.471599,352.270384 536.722758,359.399531 C524.973916,366.530637 538.846574,381.172843 538.846574,381.172843 C538.846574,381.172843 581.678713,399.836988 653.386575,403.984285 C670.367367,404.966265 671.83021,359.613034 668.655199,355.858789 C665.480836,352.10585 601.083292,355.196736 601.083292,355.196736" id="Fill-77" fill="#E5B05C" mask="url(#mask-4)"></path>
            <path d="M645.310214,512.807709 C655.552778,511.656313 654.286262,506.344883 653.460218,502.31466 C652.943143,499.790108 650.004749,496.813922 648.253076,494 C647.337661,494.7694 645.848994,496.128358 641.400868,497.516389 C636.782298,498.955802 630.450995,496.104695 626.416529,494.320471 C624.978293,499.968598 624.91318,507.171752 625.047237,508.265003 C625.213212,509.609763 635.068288,513.960457 645.310214,512.807709" id="Fill-78" fill="#163560" mask="url(#mask-4)"></path>
            <path d="M639.419353,391.918682 C637.332809,407.663098 627,486.036315 627,486.036315 L650.974309,489 C650.974309,489 680.455367,386.703216 678.943799,371.055527 C677.432875,355.409772 666.396816,354.093654 666.396816,354.093654 C666.396816,354.093654 644.942217,350.243314 639.419353,391.918682" id="Fill-79" fill="#F7CC7F" mask="url(#mask-4)"></path>
            <path d="M667.164639,247.080406 C660.068885,244.426339 656.597623,308.178278 655.641393,334.41751 C643.075282,335.62261 621.172515,334.426566 615.718967,334.018397 C613.153505,333.826279 607.240268,331.667061 604.68903,331.333928 C602.07443,330.991092 599.704869,330.814499 598.420198,331.037666 C597.947578,331.118523 584.850659,336.460294 583.729562,337.631757 C582.340798,339.084605 578.584413,342.74842 579.217374,344.331287 C579.850981,345.916741 586.442435,339.917114 586.442435,339.917114 L589.664134,338.115608 C585.654306,342.021996 578.005115,347.166474 579.107462,349.039134 C580.181362,350.865867 587.080568,345.645706 591.997489,342.087976 C587.780769,345.886985 582.540579,352.68225 583.747665,353.742453 C584.832556,354.695278 590.792989,346.825579 597.162681,344.560275 C599.523191,343.720004 601.875943,346.046113 603.732153,346.326203 C605.096349,346.533845 607.203416,346.971769 608.542396,346.594003 L615.43837,344.64372 C617.788535,344.85589 617.846724,346.240171 620.220165,346.744721 C622.97377,347.329483 627.49307,347.944647 630.999245,348.799149 C651.197738,353.719813 657.934017,356.003876 664.118153,356 C682.84965,355.988998 683.935834,253.353655 667.164639,247.080406" id="Fill-80" fill="#FD6062" mask="url(#mask-4)"></path>
            <path d="M680.491654,306.807768 C681.807472,279.553938 681.615475,245.963641 666.656998,240.233207 C660.755013,237.971073 650.350702,251.568145 652.222032,307.361331 C660.207182,308.03361 671.930512,308.576679 680.491654,306.807768" id="Fill-81" fill="#86B1F2" mask="url(#mask-4)"></path>
            <path d="M562.076946,485 C562.076946,485 564.18297,491.761738 560.411733,496.233915 C556.638548,500.705439 540.962822,505.092841 538.904839,507.514129 C536.847505,509.936721 537.002665,512 537.002665,512 L581,510.787726 L580.520886,497.485315 L578.494714,487.926674 L562.076946,485 Z" id="Fill-82" fill="#FD6062" mask="url(#mask-4)"></path>
            <path d="M557.849229,498.055744 C557.849229,498.055744 569.313356,502.822154 574.851213,499.999652 C580.387753,497.177829 580.220538,496.395648 581.823567,497.448061 C583.426596,498.501152 584,512.651006 584,512.651006 L533.830783,513 C530.339668,512.916486 528.574032,510.273233 531.410768,508.010886 C533.354811,506.459427 535.603002,505.422631 536.880159,504.668968 C540.804453,502.355018 557.849229,498.055744 557.849229,498.055744" id="Fill-83" fill="#163560" mask="url(#mask-4)"></path>
            <path d="M563.635084,367.454909 C560.24321,360.370168 552.528932,351.146333 538.95561,356.702044 C526.009764,361.999801 522.535004,375.022027 526.61911,388.357024 C530.703864,401.692021 557.593431,480.080109 558.531085,490.85748 L580,491 C580,491 576.098504,428.930806 575.141423,413.927483 C574.220605,399.491662 569.505136,379.716812 563.635084,367.454909" id="Fill-84" fill="#F7CC7F" mask="url(#mask-4)"></path>
            <path d="M528.702484,295 L600.744431,295 C602.650296,295 604.367654,296.151814 605.090479,297.91429 L627.273132,351.984568 L666.989482,351.984568 C668.100369,351.984568 669,352.883022 669,353.991959 C669,355.100897 668.100369,356 666.989482,356 L553.951942,356 C550.844186,356 548.02569,354.177107 546.753597,351.344672 L524.416888,301.618544 C523.022591,298.51196 525.296368,295 528.702484,295" id="Fill-85" fill="#9292A8" mask="url(#mask-4)"></path>
            <path d="M627.56005,356 L666.014307,356 C667.111478,356 668,355.035851 668,353.847546 C668,352.659241 667.111478,351.696485 666.014307,351.696485 L626.788371,351.696485 L626.147017,350 L626,350.051514 C626.356308,350.854856 627.375797,355.207101 627.56005,356" id="Fill-86" fill="#7A7A8C" mask="url(#mask-4)"></path>
            <path d="M625.4045,349.623493 L625.5955,349.561493 C625.4765,349.312493 625.4045,349.297493 625.4045,349.623493" id="Fill-87" fill="#7A7A8C" mask="url(#mask-4)"></path>
            <path d="M567.101595,325.275753 C567.59417,327.723249 569.738743,329.36015 571.891209,328.931937 C574.04499,328.503723 575.390527,326.17212 574.89861,323.723315 C574.406036,321.27582 572.26212,319.638918 570.108339,320.068441 C567.955216,320.496654 566.60902,322.828257 567.101595,325.275753" id="Fill-88" fill="#FFFFFF" mask="url(#mask-4)"></path>
            <path d="M630.65596,213.375586 L634,236.599769 C634,236.599769 621.788675,264.250855 614.498755,261.852544 C608.382301,259.840847 612.145039,235.373648 612.145039,235.373648 C612.145039,235.373648 615.479213,222.23459 614.479022,215.660188 C613.480065,209.084486 630.65596,213.375586 630.65596,213.375586" id="Fill-89" fill="#FD6062" mask="url(#mask-4)"></path>
            <path d="M614.45498,213.740207 C613.389853,207.020746 631.703474,211.405659 631.703474,211.405659 L632,213.373691 C631.463491,214.691024 630.809292,215.817795 630.013077,216.682295 C625.922197,221.128294 619.528802,223.798151 614,224 C614.552288,220.377334 614.892866,216.494389 614.45498,213.740207" id="Fill-90" fill="#AB2A41" mask="url(#mask-4)"></path>
            <path d="M633.613269,179.223745 C634.119772,179.038711 637.674305,205.559508 630.928866,212.856739 C624.183427,220.154616 611.039442,222.542601 606.325165,216.794875 C601.11082,210.438346 601.37276,181.933924 611.860659,174.427073 C622.348559,166.920223 633.613269,179.223745 633.613269,179.223745" id="Fill-91" fill="#FD6062" mask="url(#mask-4)"></path>
            <path d="M616.279048,159.16552 C624.537775,160.842632 629.887982,165.870701 631.853659,168.012806 C635.602738,168.453636 640.69986,170.518024 645.962864,179.198122 C652.435566,189.870769 647.65513,201.694797 640.122221,207.496767 C632.588657,213.298738 632.692907,220 632.692907,220 L631.50288,216.534753 C630.623636,213.908062 630.264333,211.123325 630.558725,208.369283 C630.735099,206.716336 631.090468,204.928854 631.777602,203.460728 C633.588543,199.585999 627.884933,197.012208 626.286427,193.788601 C625.055093,191.30624 624.994772,185.628356 623.054666,181.525049 L620.736899,178.39222 C620.736899,178.39222 615.391281,174.249075 610.160404,175.419396 C604.930183,176.587758 605.682884,157.012966 616.279048,159.16552" id="Fill-92" fill="#F7CC7F" mask="url(#mask-4)"></path>
            <path d="M626.001474,199.941031 C625.945937,203.254255 627.466199,205.967243 629.398644,205.999706 C631.33109,206.032169 632.943023,203.372844 632.99856,200.05962 C633.053429,196.746396 631.533167,194.03407 629.600721,194.000282 C627.668276,193.968482 626.057012,196.627144 626.001474,199.941031" id="Fill-93" fill="#FD6062" mask="url(#mask-4)"></path>
            <path d="M618,209.616842 L608,209 C608,209 608.034179,213.538837 612.424964,213.961879 C617.778467,214.476165 618,209.616842 618,209.616842" id="Fill-94" fill="#FFFFFF" mask="url(#mask-4)"></path>
            <path d="M173,233 C173,233 176.000214,234.499935 178.625,234.333638 C181.249786,234.166688 182,233.333899 182,233.333899 C182,233.333899 180.3215,238 178.249571,238 C174.499786,238 173,233 173,233" id="Fill-95" fill="#FFFFFF" mask="url(#mask-4)"></path>
            <polygon id="Fill-96" fill="#6394DB" mask="url(#mask-4)" points="658 308 652 307.088816 654.687985 258"></polygon>
        </g>
    </g>
</svg>